<!DOCTYPE svg PUBLIC "-//W3C//DTD SVG 1.1//EN" "http://www.w3.org/Graphics/SVG/1.1/DTD/svg11.dtd">
<!-- Uploaded to: SVG Repo, www.svgrepo.com, Transformed by: SVG Repo Mixer Tools -->
<svg height="800px" width="800px" version="1.1" id="Layer_1" xmlns="http://www.w3.org/2000/svg" xmlns:xlink="http://www.w3.org/1999/xlink" viewBox="-271.36 -271.36 1054.72 1054.72" xml:space="preserve" fill="#000000" transform="matrix(1, 0, 0, 1, 0, 0)rotate(0)">
<g id="SVGRepo_bgCarrier" stroke-width="0" transform="translate(30.72,30.72), scale(0.88)">
<path transform="translate(-271.36, -271.36), scale(32.96)" d="M16,30.784538994598037C19.89731026478214,30.663494735538997,23.992971550486832,29.452567538301036,26.335416451241905,26.335416451241905C28.493014513446113,23.464245759940443,27.029270526773118,19.590586518521143,27.110134546151933,16C27.194520271096415,12.2530399964182,29.2666999569459,8.020229756644333,26.81167251787146,5.188327482128539C24.315779114556243,2.3092858497213395,19.748842913217086,2.502759778734321,16,3.184332528973327C12.867087888251065,3.753923619795906,10.913450406547433,6.4205030551916344,8.514851191166152,8.51485119116615C5.8052821641699435,10.880724074219572,1.9941999648470563,12.466159191472514,1.3225691504776478,15.999999999999996C0.5722243207899049,19.94800107869934,2.1707203029729802,24.146055886842976,5.002001609609101,26.997998390390894C7.841687463010242,29.858406772651055,11.971340681312462,30.909662746391273,16,30.784538994598037" fill="#004157" strokewidth="0"/>
</g>
<g id="SVGRepo_tracerCarrier" stroke-linecap="round" stroke-linejoin="round" stroke="#CCCCCC" stroke-width="3.072"/>
<g id="SVGRepo_iconCarrier"> <path style="fill:#60DD4D;" d="M347.297,113.058c-38.643-53.957-76.655-96.656-78.254-98.448L256,0l-13.042,14.61 c-1.599,1.792-39.61,44.492-78.254,98.448c-53.317,74.445-80.351,131.985-80.351,171.022c0,94.647,77.001,171.648,171.648,171.648 s171.648-77.001,171.648-171.648C427.648,245.043,400.614,187.503,347.297,113.058z"/> <path style="fill:#00C47A;" d="M256,455.728c94.647,0,171.648-77.001,171.648-171.648c0-39.037-27.033-96.577-80.351-171.022 c-38.643-53.957-76.655-96.656-78.254-98.448L256,0"/> <polygon style="fill:#00925B;" points="338.3,314.55 313.575,289.823 273.484,329.913 273.484,274.46 314.988,232.956 290.263,208.229 256,242.49 221.738,208.229 197.012,232.956 238.516,274.46 238.516,329.913 198.425,289.823 173.7,314.55 238.516,379.367 238.516,512 273.484,512 273.484,379.367 "/> </g>
</svg>